# xmcd CD database file
#
# Track frame offsets:
#	150
#	13074
#	28745
#	51659
#	73226
#	99314
#	121466
#	143690
#	168507
#	200066
#	216519
#	242555
#	263630
#	290296
#	307904
#
# Disc length: 4374 seconds
#
# Revision: 0
# Processed by: cddbd v1.5.2PL0 Copyright (c) Steve Scherf et al.
# Submitted via: CDex 1.51
#
DISCID=e411140f
DTITLE=Various Artist - L'Aperitivo Italiano
DYEAR=2006
DGENRE=Jazz
TTITLE0=Bossa Nostra-Roxanne nao ligar
TTITLE1=Sarrah Jane Morris-Me and mrs Jones
TTITLE2=Sirius B-Things she said today
TTITLE3=Arcoiris-Horse with no name
TTITLE4=LTJ Experience-And I love him(RMX)
TTITLE5=Nu Braz-Donna
TTITLE6=Maru A and Anast Cia-Dancing queen
TTITLE7=12 fingers-Argomenti
TTITLE8=Montefiori Cocktail-Gypsy woman
TTITLE9=Kaleidoscopio-Madalena
TTITLE10=Sepia-Last tango in Paris
TTITLE11=Voo Doo Phunk-Do it again
TTITLE12=Bass Bingo bonecat-She's leaving home
TTITLE13=Gazzara-Turn it on again
TTITLE14=Monsieur Blumenberg-Can't get you out of my head
EXTD=YEAR: 2006
EXTT0=
EXTT1=
EXTT2=
EXTT3=
EXTT4=
EXTT5=
EXTT6=
EXTT7=
EXTT8=
EXTT9=
EXTT10=
EXTT11=
EXTT12=
EXTT13=
EXTT14=
PLAYORDER=
